<?xml version="1.0" encoding="utf-8"?>
<!-- Generator: Adobe Illustrator 16.0.4, SVG Export Plug-In . SVG Version: 6.00 Build 0)  -->
<!DOCTYPE svg PUBLIC "-//W3C//DTD SVG 1.1//EN" "http://www.w3.org/Graphics/SVG/1.1/DTD/svg11.dtd">
<svg version="1.1" xmlns="http://www.w3.org/2000/svg" xmlns:xlink="http://www.w3.org/1999/xlink" x="0px" y="0px" width="142px"
	 height="40px" viewBox="0 0 142 40" enable-background="new 0 0 142 40" xml:space="preserve">
<g id="Layer_1">
	<g>
		<g>
			<path fill="#1F4F72" d="M20,26.6c-1.2,0-2.3,0.4-3.2,1.1c-0.4,0.3-0.7,0.8-1,1.1c-0.5,0.5-1.1,0.8-1.7,1
				c-0.9,0.3-1.6,0.2-2.5-0.2C10.6,29.1,10,28,9,27.4c-1.9-1.1-4.4-0.9-6,0.6c-1.6,1.4-2.2,3.7-1.4,5.7c0.8,2,2.7,3.3,4.8,3.3
				c1.2,0,2.3-0.4,3.2-1.1c0.4-0.4,0.7-0.8,1.1-1.2c0.5-0.4,1.1-0.7,1.7-0.9c0.9-0.3,1.8,0,2.6,0.4c1,0.5,1.5,1.6,2.5,2.2
				c1.9,1.1,4.4,0.8,6-0.7c1.5-1.4,2-3.7,1.3-5.6C24,28,22.1,26.6,20,26.6"/>
			<path fill="#4BA5DC" d="M15.6,5.5C14.9,6.7,14.7,8,15,9.3c0.2,0.6,0.4,1.1,0.4,1.7c0,0.6,0,1.4-0.3,1.9c-0.5,0.8-1.1,1.5-2,1.8
				c-0.5,0.2-1.1,0.2-1.6,0.4c-0.6,0.2-1.1,0.5-1.5,0.8c-1.7,1.4-2.4,3.8-1.6,5.8c0.8,2,2.8,3.4,4.9,3.3c2.2-0.1,4.2-1.6,4.8-3.7
				c0.2-0.6,0.2-1.2,0.2-1.8c-0.1-0.7-0.4-1.3-0.5-1.9c-0.2-1.1,0-2.1,0.5-3c0.2-0.4,0.8-0.8,1.2-1c0.5-0.3,1-0.4,1.6-0.5
				c1.1-0.2,2.1-0.9,2.9-1.7c1.4-1.7,1.6-4.1,0.4-6C22.4,2.1,17.5,2.2,15.6,5.5"/>
			<path fill="#3673A0" d="M22.4,22.5c0.6,1,1.5,1.8,2.6,2.2c0.5,0.2,1,0.2,1.4,0.3c0.6,0.2,1.2,0.5,1.6,0.9c0.7,0.6,1,1.4,1.1,2.3
				c0.1,0.7-0.1,1.3-0.3,1.9c-0.2,0.6-0.3,1.3-0.3,1.9c0.1,2.3,1.9,4.3,4.2,4.7c2.1,0.4,4.3-0.6,5.4-2.5c1.1-1.9,0.9-4.3-0.6-6
				c-0.8-0.9-1.8-1.4-2.9-1.7c-1-0.2-2.2-0.7-2.7-1.6c-0.6-1-0.7-2.2-0.3-3.3c0.5-1.2,0.5-2.5,0-3.7c-0.8-2.1-2.9-3.4-5.1-3.3
				C22.8,15,20.5,19.2,22.4,22.5"/>
			<path fill="#1F4F72" d="M108.3,19.5h-3c-0.1,0-0.2,0.1-0.2,0.2v0l-4,12.1c0,0.1-0.1,0.1-0.2,0.1h-0.1c-0.1,0-0.2-0.1-0.2-0.1
				l-4-12.1v0c0-0.1-0.1-0.2-0.2-0.2h-3c-0.1,0-0.2,0.1-0.2,0.2v0l0,0l0,0l0,0.1l6.2,16.8c0,0.1,0.1,0.1,0.2,0.1h2.3l0,0
				c0.1,0,0.2,0,0.2-0.1l6.2-16.8l0.1-0.1v0C108.5,19.6,108.4,19.5,108.3,19.5z"/>
			<path fill="#1F4F72" d="M117.3,19.3c-3.3,0-7.1,2.1-7.1,8.9c0,7.1,4.1,8.8,7.6,8.8c2.2,0,4.2-0.7,5.9-2.4c0,0,0.1-0.1,0.1-0.1
				c0,0,0,0,0,0c0,0,0,0,0,0c0.1-0.1,0-0.2,0-0.2l-2-1.7l0,0l0,0c-0.1-0.1-0.2-0.1-0.3,0l0,0c-1.1,1-2.4,1.5-3.7,1.5
				c-1.3,0-2.4-0.4-3.1-1.1c-0.8-0.8-1.2-1.9-1.2-3.4c0,0,0-0.1,0.1-0.1c0,0,0.1-0.1,0.1-0.1h10.6c0.1,0,0.2-0.1,0.2-0.2v-2.6
				C124.3,22.1,121.1,19.3,117.3,19.3z M121.1,26.7c0,0-0.1,0.1-0.1,0.1h-7.4c-0.1,0-0.1,0-0.1-0.1c0,0-0.1-0.1-0.1-0.1
				c0.1-2.7,1.7-4.3,3.9-4.3c2.2,0,3.8,1.5,3.9,4.3C121.2,26.6,121.1,26.7,121.1,26.7z"/>
			<path fill="#1F4F72" d="M74.3,22.2L74.3,22.2c0,0,0-0.1,0-0.1v-2.3c0-0.1-0.1-0.2-0.2-0.2H62.3c-0.1,0-0.2,0.1-0.2,0.2v2.4
				c0,0.1,0.1,0.2,0.2,0.2h8c0.1,0,0.1,0,0.2,0.1c0,0.1,0,0.1,0,0.2l-8.7,11.6c0,0,0,0,0,0l0,0l0,0c0,0,0,0.1,0,0.1v2.3
				c0,0.1,0.1,0.2,0.2,0.2h12.4c0.1,0,0.2-0.1,0.2-0.2V34c0-0.1-0.1-0.2-0.2-0.2h-8.5c-0.1,0-0.1,0-0.2-0.1c0-0.1,0-0.1,0-0.2
				L74.3,22.2z"/>
			<path fill="#1F4F72" d="M50.8,19.3c-2.4,0-4.2,0.6-5.5,2.1c0,0-0.1,0.1-0.1,0.1c0,0,0,0,0,0l0,0c0,0,0,0,0,0
				c-0.1,0.1,0,0.2,0,0.3h0h0l2,1.6l0,0l0.1,0.1l0,0l0,0c0.1,0.1,0.2,0,0.3,0c0.5-0.8,1.5-1.1,3.3-1.1c1.3,0,2.2,0.1,2.9,0.5
				c0.6,0.4,1,1,0.9,1.9v1.8c0,0,0,0.1-0.1,0.1c0,0-0.1,0.1-0.1,0.1h-4.9c-3.7,0-5.5,2.3-5.6,5c0,3,2.2,5.2,6,5.2
				c2.4,0,3.5-0.5,4.2-1.7c0-0.1,0.1-0.1,0.2-0.1h0.1c0,0,0.1,0,0.1,0.1c0,0,0.1,0.1,0.1,0.1v1.2c0,0.1,0.1,0.2,0.2,0.2h2.8
				c0.1,0,0.2-0.1,0.2-0.2V24.9C57.9,20.7,55.1,19.3,50.8,19.3z M45.2,21.8 M54.7,30.8c0,1.4-0.3,2.2-1,2.7C53.1,34,52.1,34,50.6,34
				c-1.2,0-2.1-0.3-2.7-0.7c-0.6-0.4-0.8-1.1-0.8-1.7c0-0.7,0.3-1.3,0.8-1.7c0.5-0.4,1.4-0.6,2.4-0.6h4.2c0,0,0.1,0,0.1,0.1
				c0,0,0.1,0.1,0.1,0.1V30.8z"/>
			<path fill="#1F4F72" d="M83.6,19.3c-2.4,0-4.2,0.6-5.5,2.1c0,0-0.1,0.1-0.1,0.1c0,0,0,0,0,0l0,0c0,0,0,0,0,0
				c-0.1,0.1,0,0.2,0,0.3l0,0l0,0l2,1.6l0,0l0.1,0.1l0,0l0,0c0.1,0.1,0.2,0,0.3,0c0.5-0.8,1.5-1.1,3.3-1.1c1.3,0,2.2,0.1,2.9,0.5
				c0.6,0.4,1,1,0.9,1.9v1.8c0,0,0,0.1-0.1,0.1c0,0-0.1,0.1-0.1,0.1h-4.9c-3.7,0-5.5,2.3-5.6,5c0,3,2.2,5.2,6,5.2
				c2.4,0,3.5-0.5,4.2-1.7c0-0.1,0.1-0.1,0.2-0.1h0.1c0,0,0.1,0,0.1,0.1c0,0,0.1,0.1,0.1,0.1v1.2c0,0.1,0.1,0.2,0.2,0.2h2.8
				c0.1,0,0.2-0.1,0.2-0.2V24.9C90.7,20.7,87.9,19.3,83.6,19.3z M78.1,21.8 M87.6,30.8c0,1.4-0.3,2.2-1,2.7C85.9,34,84.9,34,83.4,34
				c-1.2,0-2.1-0.3-2.7-0.7c-0.6-0.4-0.8-1.1-0.8-1.7c0-0.7,0.3-1.3,0.8-1.7c0.5-0.4,1.4-0.6,2.4-0.6h4.2c0,0,0.1,0,0.1,0.1
				c0,0,0.1,0.1,0.1,0.1V30.8z"/>
			<path fill="#1F4F72" d="M133.6,19.3c-2.4,0-4.2,0.6-5.5,2.1c0,0-0.1,0.1-0.1,0.1c0,0,0,0,0,0l0,0c0,0,0,0,0,0
				c-0.1,0.1,0,0.2,0,0.3l0,0l0,0l2,1.6l0,0l0.1,0.1l0,0l0,0c0.1,0.1,0.2,0,0.3,0c0.5-0.8,1.5-1.1,3.3-1.1c1.3,0,2.2,0.1,2.9,0.5
				c0.6,0.4,1,1,0.9,1.9v1.8c0,0,0,0.1-0.1,0.1c0,0-0.1,0.1-0.1,0.1h-4.9c-3.7,0-5.5,2.3-5.6,5c0,3,2.2,5.2,6,5.2
				c2.4,0,3.5-0.5,4.2-1.7c0-0.1,0.1-0.1,0.2-0.1h0.1c0,0,0.1,0,0.1,0.1c0,0,0.1,0.1,0.1,0.1v1.2c0,0.1,0.1,0.2,0.2,0.2h2.8
				c0.1,0,0.2-0.1,0.2-0.2V24.9C140.8,20.7,138,19.3,133.6,19.3z M128.1,21.8 M137.6,30.8c0,1.4-0.3,2.2-1,2.7
				C136,34,135,34,133.5,34c-1.2,0-2.1-0.3-2.7-0.7c-0.6-0.4-0.8-1.1-0.8-1.7c0-0.7,0.3-1.3,0.8-1.7c0.5-0.4,1.4-0.6,2.4-0.6h4.2
				c0,0,0.1,0,0.1,0.1c0,0,0.1,0.1,0.1,0.1V30.8z"/>
		</g>
		<g>
			<path fill="#999999" d="M47.9,13.4H45V6.1h2.9c2.4,0,4,1.6,4,3.6v0C51.9,11.8,50.3,13.4,47.9,13.4z M50.2,9.7
				c0-1.3-0.9-2.2-2.3-2.2h-1.3v4.4h1.3C49.3,11.9,50.2,11,50.2,9.7L50.2,9.7z"/>
			<path fill="#999999" d="M58.5,13.4l-0.7-1.6h-3.2l-0.7,1.6h-1.7l3.2-7.3H57l3.2,7.3H58.5z M56.2,8l-1,2.3h2L56.2,8z"/>
			<path fill="#999999" d="M63.8,7.6v5.8h-1.7V7.6h-2.3V6.1h6.2v1.5H63.8z"/>
			<path fill="#999999" d="M72,13.4l-0.7-1.6h-3.2l-0.7,1.6h-1.7L69,6.1h1.5l3.2,7.3H72z M69.7,8l-1,2.3h2L69.7,8z"/>
			<path fill="#999999" d="M83.7,13.4L83,11.7h-3.2l-0.7,1.6h-1.7l3.2-7.3h1.5l3.2,7.3H83.7z M81.4,8l-1,2.3h2L81.4,8z"/>
			<path fill="#999999" d="M91.9,13.4l-3.6-4.6v4.6h-1.6V6.1h1.5l3.5,4.4V6.1h1.6v7.2H91.9z"/>
			<path fill="#999999" d="M100.7,13.4l-0.7-1.6h-3.2l-0.7,1.6h-1.7l3.2-7.3h1.5l3.2,7.3H100.7z M98.4,8l-1,2.3h2L98.4,8z"/>
			<path fill="#999999" d="M103.6,13.4V6.1h1.7v5.8h3.8v1.4H103.6z"/>
			<path fill="#999999" d="M112.6,10.5v2.9H111v-2.8l-2.9-4.4h1.9l1.8,2.9l1.8-2.9h1.9L112.6,10.5z"/>
			<path fill="#999999" d="M119.9,7.6v5.8h-1.7V7.6H116V6.1h6.2v1.5H119.9z"/>
			<path fill="#999999" d="M123.6,13.4V6.1h1.7v7.2H123.6z"/>
			<path fill="#999999" d="M130.6,13.5c-2.2,0-3.9-1.6-3.9-3.7v0c0-2.1,1.6-3.7,3.9-3.7c1.4,0,2.3,0.5,3,1.1l-1.1,1.2
				c-0.6-0.5-1.2-0.8-1.9-0.8c-1.3,0-2.2,1-2.2,2.2v0c0,1.2,0.9,2.3,2.2,2.3c0.9,0,1.4-0.3,2-0.8l1.1,1
				C133,13,132.1,13.5,130.6,13.5z"/>
			<path fill="#999999" d="M137.7,13.5c-1.1,0-2.3-0.4-3.2-1.2l1-1.1c0.7,0.5,1.4,0.9,2.2,0.9c0.7,0,1.1-0.3,1.1-0.7v0
				c0-0.4-0.3-0.6-1.5-0.9c-1.5-0.4-2.5-0.8-2.5-2.2v0c0-1.3,1.1-2.2,2.6-2.2c1.1,0,2,0.3,2.8,0.9l-0.9,1.2c-0.7-0.4-1.3-0.7-2-0.7
				c-0.6,0-1,0.3-1,0.6v0c0,0.5,0.3,0.6,1.6,0.9c1.5,0.4,2.4,0.9,2.4,2.2v0C140.5,12.7,139.4,13.5,137.7,13.5z"/>
		</g>
	</g>
</g>
</svg>
